<?xml version="1.0" encoding="utf-8"?>
<!-- Generator: Adobe Illustrator 24.0.1, SVG Export Plug-In . SVG Version: 6.00 Build 0)  -->
<svg version="1.1" id="Calque_1" xmlns:amcharts="http://amcharts.com/ammap"
	 xmlns="http://www.w3.org/2000/svg" xmlns:xlink="http://www.w3.org/1999/xlink" x="0px" y="0px" viewBox="0 0 900 1000"
	 style="enable-background:new 0 0 900 1000;" xml:space="preserve">
<style type="text/css">
	.st0{fill:#F29E0A;stroke:#FFFFFF;stroke-width:0.5;}
	.st1{fill:#CCCCCC;stroke:#FFFFFF;stroke-width:0.5;}
	.st2{fill:#FFFFFF;}
	.st3{font-family:'BerlinSansFBDemi-Bold';}
	.st4{font-size:21px;}
	.st5{font-size:8px;}
	.st6{font-size:14px;}
</style>
<defs>
	
		<amcharts:ammap  bottomLatitude="4.3510552" leftLongitude="-8.6020589" projection="mercator" rightLongitude="-2.493031" topLatitude="10.7400151">
		</amcharts:ammap>
</defs>
<g>
	<a>
		<polygon id="DI-Comoe" class="st0" points="765,735.4 716.3,737.8 713.2,708.1 693.7,740.8 664.1,735.9 681.9,725.4 677.8,654.1 
			673.4,646.5 682.8,603.8 654.6,578.4 645.6,541.5 633.2,542.7 633.2,496.4 660,484.1 650.1,470.2 664.6,449.1 671.9,448.4 
			721.9,486.4 700.4,541.8 712.1,592.4 731.9,649.1 738.5,674.9 762.5,678.4 		"/>
	</a>
	<a>
		<polygon id="DI-LAC" class="st0" points="660,484.1 633.2,496.4 633.2,542.7 591,562.5 584.6,594.4 543.3,595.7 512.1,588.1 
			476.5,594.1 444.9,577 419,541 402.8,507.2 408.5,475.8 386.5,459.8 435.3,462.5 485.3,423 506.9,426 517.4,425.6 536.2,414.7 
			534.9,388.2 602.5,358 602.5,366.1 658.9,416.2 664.6,449.1 650.1,470.2 		"/>
	</a>
	<a>
		<polygon id="DI-Lagune" class="st0" points="677.8,654.1 681.9,725.4 664.1,735.9 603.5,721.5 639.2,721.5 629.3,707.2 
			637.2,720.6 616,710.8 514,726.1 515.8,715.4 498.1,732.8 604.3,726.1 487.1,739.6 442.5,727.2 461.5,726.1 481.2,652 472,610.6 
			441.1,596.5 444.9,577 476.5,594.1 512.1,588.1 543.3,595.7 584.6,594.4 591,562.5 633.2,542.7 645.6,541.5 654.6,578.4 
			682.8,603.8 673.4,646.5 		"/>
	</a>
	<a>
		<path id="DI-Vallebandama" class="st0" d="M448.5,190.6l-19.7-12l-20.6,39l4.8,28l-31.1,5.8l11.3,40.3l34.6,45.4l-51.6,24.5
			l-7.3,33.9l8.2,32.9l9.3,31.3l48.8,2.7l50-39.5l21.5,3l10.5-0.4l18.8-10.9l-1.3-26.5l67.6-30.2l10.2-77.4l-37.3-3.7L534.1,242
			l-52.9-0.5l6.7-26.8l-17.6-24.1L448.5,190.6z"/>
	</a>
	<a>
		<path id="DI-Zanzan" class="st0" d="M655.2,107.9l-71.1,13.3L561.6,149l19,49.2l37.1,9.5l11.8,20.9l-12.4,8.1l13.9,22.5
			l-18.4,21.5L602.5,358v8.1l56.4,50.1l5.7,32.9l7.4-0.7l50,38l40-117.2l37.2-35.1l-14.8-94.4l-20.3-17.4l13-55.2l-17.6,8
			l-52.9-66.9L655.2,107.9z"/>
	</a>
	<a>
		<path id="DI-Abidjan" class="st0" d="M561.6,719l-9.6-22.3l9.9-13.7l-14.9-8.8l-17-5.2l-4.5-13c0,0,21.5-4,26.5,0s38,10,38,10
			l17,16h16l10.2,9l9.8,15l-9.8,7.8l-37.9,0.2C583,713.9,561.6,719,561.6,719z"/>
	</a>
	<a>
		<path id="CI-Basassandra" class="st0" d="M140.9,841.4l219.9-88.5l15-32.6l-11.1-37.2l-18.4,5.9l-10.7-21.5l-28.6-25l-16.9-57.4
			l-56,7.6L212,551.8l-15.4,12.9l2.8,101.1l-42.3,8.2l3.7,40.8L132.5,770L140.9,841.4z"/>
	</a>
	<a>
		<polygon id="DI-Gohdjibouha" class="st0" points="481.2,652 461.5,726.1 442.5,727.2 430.6,731.5 416.1,722.4 417.1,743.5 
			360.8,752.9 375.8,720.3 364.7,683.1 346.3,688.9 335.6,667.5 306.9,642.5 290.1,585.1 329.5,576.1 337,556.8 376.3,560.9 
			419,541 444.9,577 441.1,596.5 472,610.6 		"/>
	</a>
	<a>
		<polygon id="DI-Yamoussoukro" class="st0" points="400.4,504.9 400.4,482 379.9,457.8 428.7,460.5 434.5,490 434.5,520.9 
			412.4,532.9 		"/>
	</a>
	<a>
		<polygon id="DI-Marouhe" class="st0" points="419,541 376.3,560.9 337,556.8 329.5,576.1 290,585.1 234,592.8 211.9,551.8 
			203.4,502.9 213.9,418.6 202.2,398.8 282.3,395.9 309.8,391.2 328.5,412.1 369,395.6 377.2,428.4 386.5,459.8 408.5,475.8 
			402.8,507.2 		"/>
	</a>
	<a>
		<polygon id="DI-Woroba" class="st0" points="427.9,337.2 376.3,361.7 369,395.6 328.5,412.1 309.8,391.2 282.3,395.9 202.2,398.8 
			200.7,363.2 184.2,363.3 152.8,339.7 144.8,374.5 124.2,382.5 85.4,358.2 80.5,337.5 46.1,329.3 47.6,302.8 84.7,296.1 125,312.2 
			120.5,279.2 84.9,254.3 89.8,230 113.8,219.6 187.2,292.6 181.2,237.1 223.7,237.2 244.7,214 282.2,219.6 304.5,202.3 348,277.1 
			393.3,291.8 		"/>
	</a>
	<a>
		<polygon id="DI-Montagne" class="st0" points="211.9,551.8 196.5,564.8 199.3,665.8 157,674.1 153.2,645.4 108.8,630.7 
			92.1,589.5 27,580.5 26.2,565.9 0,560.4 23.1,539 43.7,491.3 17.4,420.1 50.9,421.9 71.9,357.9 85.4,358.2 124.2,382.5 
			144.9,374.5 152.8,339.7 184.2,363.3 200.7,363.2 202.2,398.8 213.9,418.6 203.4,502.9 		"/>
	</a>
	<a>
		<path id="DI-Denguele" class="st0" d="M155.2,52.7l-7.6-16.3L124.8,39l-66.6,65.8l3.7,59l35.9,10.4l-7.7,31.1l23.7,14.4l73.4,73
			l-6.1-55.5h42.5l21-23.2l1.8-97.1l-28-14.6l9.7-21.5l37.9-6l-11-26.4l-38.3,2.8l-7.1,27.1L155.2,52.7z"/>
	</a>
	<a>
		<path id="DI-Savane" class="st0" d="M308.9,0.5l-22.4,5.4L284,23.7l-29.2-13.6l0.1,38.3L266,74.8l-37.9,6l-9.7,21.5l28,14.6
			l-1.8,97.1l37.4,5.6l22.3-17.2l43.5,74.8l45.2,14.7l-11-40.4l31.1-5.8l-4.8-28l20.6-39l19.7,12l22,0.1l17.6,24.1l-6.7,26.8
			l52.9,0.5l41.1,34.8l37.3,3.7l18.4-21.5l-13.9-22.5l12.4-8.1l-11.8-20.9l-37.1-9.5l-19-49.2l-80.3-35.2l-26-57.1l-34.9,0.5
			l-25-20.4L328.8,72L311,63.6l-2.1-34.5V0.5z"/>
	</a>
</g>
<path class="st1" d="M-111,725.9"/>
<text transform="matrix(1 0 0 1 678 284.8898)" class="st2 st3 st4">ZANZAN</text>
<text transform="matrix(1 0 0 1 413 312.9998)" class="st2 st3 st4">VALE-BANDAMAN</text>
<text transform="matrix(1 0 0 1 527.1147 493.3499)" class="st2 st3 st4">LACS</text>
<text transform="matrix(1 0 0 1 246.1147 499.9999)" class="st2 st3 st4">MARAHOUE</text>
<text transform="matrix(1 0 0 1 206.0001 320.4996)" class="st2 st3 st4">WOROUBAH</text>
<text transform="matrix(1 0 0 1 326.1147 626.5361)" class="st2 st3 st4">GODJIBOUA</text>
<text transform="matrix(1 0 0 1 184.1147 717.5999)" class="st2 st3 st4">BAS-SASSANDRA</text>
<text transform="matrix(1 0 0 1 65.1147 486.3999)" class="st2 st3 st4">MONTAGNE</text>
<text transform="matrix(1 0 0 1 528.95 633.5361)" class="st2 st3 st4">LAGUNES</text>
<text transform="matrix(2.380953e-02 -0.9997 0.9997 2.380953e-02 419.9305 526.593)" class="st2 st3 st5">YAMOUSSOUKRO</text>
<text transform="matrix(1 0 0 1 351.1147 136.5361)" class="st2 st3 st4">SAVANE</text>
<text transform="matrix(1 0 0 1 98.1147 148.536)" class="st2 st3 st4">DENGGUELE</text>
<text transform="matrix(1 0 0 1 636.1147 514.5361)" class="st2 st3 st4">COMOE</text>
<text transform="matrix(1 0 0 1 567.1147 704.5361)" class="st2 st3 st6">ABIDJAN</text>
</svg>
